<svg xmlns="http://www.w3.org/2000/svg" viewBox="0 0 76.53 42.37"><defs><style>.cls-1{fill:#636464;}</style></defs><title>Artboard 52</title><g id="Icons"><path class="cls-1" d="M66.73,13.69s-8.59,13.62-8.59,19.79c0,4.19,2.81,8.9,8.59,8.9s8.58-4.71,8.58-8.9C75.31,27.31,66.73,13.69,66.73,13.69Zm4.08,24.18H62.64a1.44,1.44,0,0,1-1.44-1.44h0A1.44,1.44,0,0,1,62.64,35h8.16a1.44,1.44,0,0,1,1.44,1.44h0A1.44,1.44,0,0,1,70.81,37.87Zm-5.48-8H62.7a1.44,1.44,0,0,1-1.44-1.44h0A1.44,1.44,0,0,1,62.7,27h2.63V24.36a1.44,1.44,0,0,1,1.44-1.44h0a1.44,1.44,0,0,1,1.44,1.44V27h2.55a1.44,1.44,0,0,1,1.44,1.44h0a1.44,1.44,0,0,1-1.44,1.44H68.12l.08-.08v2.63a1.44,1.44,0,0,1-1.44,1.44h0a1.44,1.44,0,0,1-1.44-1.44V29.87Z"/><path class="cls-1" d="M5.79,42.07C.41,42.07,0,36.28,0,36.28V0H71.17s5.36-.24,5.36,4.69c0,5.19-4.64,4.91-4.64,4.91h-19a6.7,6.7,0,0,0-1.51-.37l-15.54-2L18.66,2.31a1,1,0,0,0-1.28.7,1.05,1.05,0,0,0,.69,1.31L35.61,9.38a4.7,4.7,0,0,1-2.57,9h0l-7.37-2.14c-3.83-1.2-6.67,0-9.7,1.28a23.31,23.31,0,0,1-8,2.22c-.4,0-.82.05-1.31,0a1,1,0,0,0-1,1,1.07,1.07,0,0,0,1,1.07,24.19,24.19,0,0,0,10.13-2.43c2.88-1.22,5.16-2.18,8.27-1.2l1.55.45a6.79,6.79,0,0,0-.62,12,6.23,6.23,0,0,0,2.68,11.31Z"/><path class="cls-1" d="M55.21,16.56a4.71,4.71,0,0,1-5.26,4.08L38.55,19.21a6.78,6.78,0,0,0,1.71-8.59,6.53,6.53,0,0,0-.47-.73L51.13,11.3A4.71,4.71,0,0,1,55.21,16.56Z"/><path class="cls-1" d="M49.7,27.47a4.71,4.71,0,0,1-5.26,4.08l-15.61-2a4.71,4.71,0,0,1-4.08-5.26A4.71,4.71,0,0,1,30,20.24l15.62,2A4.71,4.71,0,0,1,49.7,27.47Z"/><path class="cls-1" d="M42.42,37.5A4.08,4.08,0,0,1,37.86,41l-9-1.13a4.07,4.07,0,1,1,1-8.07l9,1.13a4.08,4.08,0,0,1,3.56,4A4.53,4.53,0,0,1,42.42,37.5Z"/></g></svg>